<svg width="259" height="38" viewBox="0 0 259 38" fill="none" xmlns="http://www.w3.org/2000/svg">
<path d="M0 36.7504V10.0323H16.7007C23.132 10.0323 26.7182 14.3742 26.7182 19.3533V36.7653H20.0349V16.7155H6.68325V36.7653H0V36.7504ZM39.2696 30.0672H52.6361V16.7007H39.2696V30.0672ZM65.158 27.4295V0H71.8412V10.0175H86.8822V16.7007H71.8412V30.0672H86.8822V36.7504H75.1902C68.8034 36.7504 65.158 32.453 65.158 27.4443M113.615 16.7155H98.5742V36.7653H91.8909V19.2199C91.8909 14.1667 95.9365 10.0323 102.338 10.0323H113.615V16.7155ZM129.442 9.20243C121.632 9.20243 115.275 15.5152 115.275 23.3543C115.275 31.1934 121.617 37.5951 129.442 37.5951C137.266 37.5951 143.682 31.2823 143.682 23.3543C143.682 15.4263 137.296 9.20243 129.442 9.20243ZM122.803 16.7155H136.169V30.082H122.803V16.7155ZM148.691 36.7653V10.0323H165.436C171.823 10.0323 175.424 14.3297 175.424 19.3533V36.7653H168.741V16.7155H155.374V36.7653H148.691ZM201.327 10.0323H179.603V16.7155H194.644V36.7653H201.327V10.0323ZM194.644 6.69807H201.327V0H194.644V6.68325V6.69807ZM206.336 23.3691C206.336 16.2265 211.597 10.0471 219.584 10.0471H228.89V16.6859H213.849V30.0968H228.89V36.7801H219.584C211.611 36.7801 206.336 30.6451 206.336 23.3691ZM258.957 10.0471V36.7801H242.257C236.951 36.7801 232.239 33.4459 232.239 28.4223C232.239 23.3988 234.906 20.3609 238.922 19.5311V30.0968H252.289V16.7303H238.922V10.0471H258.972H258.957Z" fill="white"/>
</svg>
